<?xml version="1.0" encoding="utf-8"?>
<!-- Generator: Adobe Illustrator 25.0.0, SVG Export Plug-In . SVG Version: 6.00 Build 0)  -->
<svg version="1.1" id="Layer_1" xmlns="http://www.w3.org/2000/svg" xmlns:xlink="http://www.w3.org/1999/xlink" x="0px" y="0px"
	 viewBox="0 0 500 500" style="enable-background:new 0 0 500 500;" xml:space="preserve">
<style type="text/css">
	.st0{fill:url(#SVGID_1_);}
</style>
<g>
	<path d="M170.64,164.6 M169.66,207.47h35.43v98.45h-35.43V207.47z"/>
	<path d="M220.92,256.6c0-36.6,18.59-52.26,40.52-52.26c17.42,0,25.45,11.55,27.21,20.16h1.57l-1.96-20.94v-39.34h35.43v141.71
		h-33.47l1.18-22.71v-1.96l-1.37,1.17c-3.52,15.27-14.87,25.45-32.1,25.45C237.75,307.88,220.92,292.02,220.92,256.6z
		 M289.62,257.77v-8.81c0-11.55-3.72-22.12-14.29-22.12c-8.61,0-16.25,6.85-16.25,27.4c0,19.38,4.5,30.34,15.27,30.34
		C284.34,284.59,289.62,273.63,289.62,257.77z"/>
	<path d="M339.34,256.99c0-30.93,18.4-52.26,53.83-52.26c34.64,0,52.26,19.96,52.26,50.89c0,30.93-18.4,52.65-53.63,52.65
		C355.59,308.27,339.34,289.48,339.34,256.99z M407.85,255.81c0-20.36-4.5-27.99-15.27-27.99c-10.76,0-15.66,7.83-15.66,27.8
		c0,19.77,4.31,29.55,14.88,29.55C402.56,285.17,407.85,276.36,407.85,255.81z"/>
</g>
<g>
	<g>
		<linearGradient id="SVGID_1_" gradientUnits="userSpaceOnUse" x1="83.9481" y1="305.9576" x2="83.9481" y2="250.5761">
			<stop  offset="0" style="stop-color:#FED700"/>
			<stop  offset="1" style="stop-color:#FAA41A"/>
		</linearGradient>
		<polygon class="st0" points="103.23,274.8 64.67,250.58 64.67,305.96 		"/>
		<g>
			<polygon points="123.91,274.8 111.4,284.91 85.4,305.92 154.78,305.92 154.78,274.8 			"/>
			<polygon points="71.58,239.57 103.23,259.45 103.23,174.49 64.67,174.49 64.67,235.22 			"/>
		</g>
	</g>
</g>
<rect x="169.66" y="164.6" width="35.43" height="29.75"/>
</svg>
