<?xml version="1.0" encoding="UTF-8" standalone="no"?>
<svg
   aria-hidden="true"
   focusable="false"
   data-prefix="fas"
   data-icon="lock"
   role="img"
   viewBox="0 0 448 512"
   class="svg-inline--fa fa-lock fa-w-14 fa-9x"
   version="1.1"
   id="svg4"
   sodipodi:docname="lockOpen.svg"
   inkscape:version="1.1.1 (50ffc5b540, 2022-01-11)"
   xmlns:inkscape="http://www.inkscape.org/namespaces/inkscape"
   xmlns:sodipodi="http://sodipodi.sourceforge.net/DTD/sodipodi-0.dtd"
   xmlns="http://www.w3.org/2000/svg"
   xmlns:svg="http://www.w3.org/2000/svg">
  <defs
     id="defs8" />
  <sodipodi:namedview
     id="namedview6"
     pagecolor="#ffffff"
     bordercolor="#666666"
     borderopacity="1.0"
     inkscape:pageshadow="2"
     inkscape:pageopacity="0.0"
     inkscape:pagecheckerboard="0"
     showgrid="false"
     inkscape:zoom="1.5273438"
     inkscape:cx="224.24552"
     inkscape:cy="256"
     inkscape:window-width="1920"
     inkscape:window-height="1043"
     inkscape:window-x="0"
     inkscape:window-y="0"
     inkscape:window-maximized="1"
     inkscape:current-layer="svg4" />
  <path
     id="path2"
     class=""
     d="M 224 0 C 140.2 0 72 68.2 72 152 L 72 224 L 48 224 C 21.5 224 0 245.5 0 272 L 0 464 C 0 490.5 21.5 512 48 512 L 400 512 C 426.5 512 448 490.5 448 464 L 448 272 C 448 245.5 426.5 224 400 224 L 376 224 L 376 223.91797 L 296 223.91797 L 296 224 L 152 224 L 152 152 C 152 112.3 184.3 80 224 80 C 252.47658 80 277.14213 96.620041 288.81445 120.66797 L 372.73438 120.66797 C 358.2479 51.845903 297.06107 0 224 0 z " />
</svg>