<?xml version="1.0" encoding="UTF-8" standalone="no"?>
<!-- Generator: Adobe Illustrator 25.0.0, SVG Export Plug-In . SVG Version: 6.00 Build 0)  -->

<svg
   xmlns:dc="http://purl.org/dc/elements/1.1/"
   xmlns:cc="http://creativecommons.org/ns#"
   xmlns:rdf="http://www.w3.org/1999/02/22-rdf-syntax-ns#"
   xmlns:svg="http://www.w3.org/2000/svg"
   xmlns="http://www.w3.org/2000/svg"
   xmlns:sodipodi="http://sodipodi.sourceforge.net/DTD/sodipodi-0.dtd"
   xmlns:inkscape="http://www.inkscape.org/namespaces/inkscape"
   version="1.1"
   id="Layer_1"
   x="0px"
   y="0px"
   viewBox="0 0 380.70001 143.90039"
   xml:space="preserve"
   sodipodi:docname="lidoWhite.svg"
   width="380.70001"
   height="143.90039"
   inkscape:version="0.92.5 (2060ec1f9f, 2020-04-08)"><metadata
   id="metadata36"><rdf:RDF><cc:Work
       rdf:about=""><dc:format>image/svg+xml</dc:format><dc:type
         rdf:resource="http://purl.org/dc/dcmitype/StillImage" /></cc:Work></rdf:RDF></metadata><defs
   id="defs34" /><sodipodi:namedview
   pagecolor="#ffffff"
   bordercolor="#666666"
   borderopacity="1"
   objecttolerance="10"
   gridtolerance="10"
   guidetolerance="10"
   inkscape:pageopacity="0"
   inkscape:pageshadow="2"
   inkscape:window-width="1920"
   inkscape:window-height="1043"
   id="namedview32"
   showgrid="false"
   inkscape:zoom="0.472"
   inkscape:cx="-89.064407"
   inkscape:cy="58.200397"
   inkscape:window-x="0"
   inkscape:window-y="0"
   inkscape:window-maximized="1"
   inkscape:current-layer="Layer_1" />
<style
   type="text/css"
   id="style2">
	.st0{fill:#FFFFFF;}
	.st1{fill:url(#SVGID_1_);}
</style>
<g
   id="g10"
   transform="translate(-64.7,-164.3)">
	<path
   class="st0"
   d="m 169.7,207.5 h 35.4 v 98.4 h -35.4 z"
   id="path4"
   inkscape:connector-curvature="0"
   style="fill:#ffffff" />
	<path
   class="st0"
   d="m 220.9,256.6 c 0,-36.6 18.6,-52.3 40.5,-52.3 17.4,0 25.5,11.6 27.2,20.2 h 1.6 l -2,-20.9 v -39.3 h 35.4 V 306 h -33.5 l 1.2,-22.7 v -2 l -1.4,1.2 c -3.5,15.3 -14.9,25.5 -32.1,25.5 -20,-0.1 -36.9,-16 -36.9,-51.4 z m 68.7,1.2 V 249 c 0,-11.6 -3.7,-22.1 -14.3,-22.1 -8.6,0 -16.2,6.9 -16.2,27.4 0,19.4 4.5,30.3 15.3,30.3 9.9,0 15.2,-11 15.2,-26.8 z"
   id="path6"
   inkscape:connector-curvature="0"
   style="fill:#ffffff" />
	<path
   class="st0"
   d="m 339.3,257 c 0,-30.9 18.4,-52.3 53.8,-52.3 34.6,0 52.3,20 52.3,50.9 0,30.9 -18.4,52.6 -53.6,52.6 -36.2,0.1 -52.5,-18.7 -52.5,-51.2 z m 68.6,-1.2 c 0,-20.4 -4.5,-28 -15.3,-28 -10.8,0 -15.7,7.8 -15.7,27.8 0,19.8 4.3,29.5 14.9,29.5 10.8,0.1 16.1,-8.7 16.1,-29.3 z"
   id="path8"
   inkscape:connector-curvature="0"
   style="fill:#ffffff" />
</g>
<g
   id="g27"
   transform="translate(-64.7,-164.3)">
	<g
   id="g25">
		
			<linearGradient
   id="SVGID_1_"
   gradientUnits="userSpaceOnUse"
   x1="83.949997"
   y1="194.03999"
   x2="83.949997"
   y2="249.42"
   gradientTransform="matrix(1,0,0,-1,0,500)">
			<stop
   offset="0"
   style="stop-color:#FED700"
   id="stop12" />
			<stop
   offset="1"
   style="stop-color:#FAA41A"
   id="stop14" />
		</linearGradient>
		<polygon
   class="st1"
   points="64.7,306 103.2,274.8 64.7,250.6 "
   id="polygon17"
   style="fill:url(#SVGID_1_)" />
		<g
   id="g23">
			<polygon
   class="st0"
   points="85.4,305.9 154.8,305.9 154.8,274.8 123.9,274.8 111.4,284.9 "
   id="polygon19"
   style="fill:#ffffff" />
			<polygon
   class="st0"
   points="103.2,174.5 64.7,174.5 64.7,235.2 71.6,239.6 103.2,259.5 "
   id="polygon21"
   style="fill:#ffffff" />
		</g>
	</g>
</g>
<rect
   x="105"
   y="0.30000609"
   class="st0"
   width="35.400002"
   height="29.799999"
   id="rect29"
   style="fill:#ffffff" />
</svg>