<svg width="99.99999999999999" height="125" xmlns="http://www.w3.org/2000/svg">
 <defs>
  <linearGradient y2="1" x2="0.52344" y1="0" x1="0.52344" id="svg_7">
   <stop offset="0" stop-opacity="0.99609" stop-color="#ffa500"/>
   <stop offset="1" stop-opacity="0.99609" stop-color="#ffd700"/>
   <stop offset="NaN" stop-opacity="0" stop-color="0"/>
   <stop offset="NaN" stop-opacity="0" stop-color="0"/>
   <stop offset="NaN" stop-opacity="0" stop-color="0"/>
   <stop offset="NaN" stop-opacity="0" stop-color="0"/>
   <stop offset="NaN" stop-opacity="0" stop-color="0"/>
   <stop offset="NaN" stop-opacity="0" stop-color="0"/>
   <stop offset="NaN" stop-opacity="0" stop-color="0"/>
  </linearGradient>
 </defs>
 <g>
  <title>background</title>
  <rect fill="none" id="canvas_background" height="602" width="802" y="-1" x="-1"/>
 </g>
 <g>
  <title>Layer 1</title>
  <g id="svg_1">
   <path id="svg_2" fill="url(#svg_7)" d="m49.80583,23.62133c-21.5389,0 -39,17.4611 -39,39.00004c0,21.5389 17.4611,39 39,39c21.5389,0 39,-17.4611 39,-39c0,-21.53894 -17.4611,-39.00004 -39,-39.00004zm-10.625,19.96875c0.7706,-0.0174 1.567,0.17265 2.3438,0.59375l25,14.46874c1.3607,0.7902 2.2812,2.2408 2.2812,3.9375c0,1.6967 -0.9206,3.1472 -2.2812,3.9375l-25,14.5c-3.1069,1.6844 -6.6398,-0.4618 -6.7188,-4l0,-28.87499c0.059,-2.65373 2.0632,-4.51046 4.375,-4.5625z"/>
  </g>
 </g>
</svg>